<?xml version="1.0" standalone="no"?>
<!DOCTYPE svg PUBLIC "-//W3C//DTD SVG 20010904//EN"
 "http://www.w3.org/TR/2001/REC-SVG-20010904/DTD/svg10.dtd">
<svg version="1.0" xmlns="http://www.w3.org/2000/svg"
 width="512.000000pt" height="512.000000pt" viewBox="0 0 512.000000 512.000000"
 preserveAspectRatio="xMidYMid meet">
<metadata>
Created by potrace 1.14, written by Peter Selinger 2001-2017
</metadata>
<g transform="translate(0.000000,512.000000) scale(0.100000,-0.100000)"
fill="#000000" stroke="none">
<path d="M0 4088 c0 -861 2 -1029 13 -1013 8 11 35 54 60 96 l47 76 0 164 c1
338 83 619 258 884 249 375 626 616 1082 691 178 29 430 15 626 -35 433 -111
814 -420 1010 -822 117 -237 164 -440 164 -701 0 -528 -251 -999 -694 -1303
l-74 -51 349 -570 c193 -313 371 -602 396 -642 l45 -73 180 293 c99 161 381
619 626 1018 244 399 450 733 456 742 10 14 51 -46 271 -405 142 -232 269
-438 282 -457 l23 -35 0 1588 0 1587 -2560 0 -2560 0 0 -1032z"/>
<path d="M1152 1922 c148 -245 364 -592 368 -591 3 0 77 118 166 262 l160 262
-185 6 c-222 8 -334 26 -479 80 l-53 19 23 -38z"/>
</g>
</svg>
